<svg id="Layer_1" data-name="Layer 1" xmlns="http://www.w3.org/2000/svg" xmlns:xlink="http://www.w3.org/1999/xlink" viewBox="0 0 894.67 867.27"><defs><style>.cls-1,.cls-2,.cls-8{fill:none;}.cls-2{stroke:#ffbe25;}.cls-2,.cls-8{stroke-miterlimit:10;stroke-width:30px;}.cls-3{clip-path:url(#clip-path);}.cls-4{fill:#ff4b47;}.cls-5{fill:#ffbe25;}.cls-6{opacity:0.2;}.cls-7{clip-path:url(#clip-path-2);}.cls-8{stroke:#ff4b47;}</style><clipPath id="clip-path"><path class="cls-1" d="M99,24.79L85.89,41.56a20,20,0,0,0,3.51,28.1l84.41,65.53L14.74,230.58a20,20,0,0,0-9.56,19.59l5.15,42a20,20,0,0,0,15.09,17l88,21.55,13.52,106.94,26.28,214,24.08,196.1a20,20,0,0,0,22.29,17.41l39.7-4.88A20,20,0,0,0,256.69,838L232.55,641.43l363.32-44.19L620,793.34a20,20,0,0,0,22.29,17.41l39.7-4.88a20,20,0,0,0,17.41-22.29l-24.08-196.1L655.36,425.28a50,50,0,0,0-55.72-43.53L570,385.4,390.31,407.46,352.21,87.86,230.93,103.13,127.11,21.37A20,20,0,0,0,99,24.79Z"/></clipPath><clipPath id="clip-path-2"><path class="cls-1" d="M219.91,9.94L206.83,26.71a20,20,0,0,0,3.51,28.1l84.41,65.53-159.07,95.4a20,20,0,0,0-9.56,19.59l5.15,42a20,20,0,0,0,15.09,17l88,21.55,13.52,106.94,26.28,214,24.08,196.1a20,20,0,0,0,22.29,17.41l39.7-4.88a20,20,0,0,0,17.41-22.29L353.5,626.58l363.32-44.19,24.08,196.1a20,20,0,0,0,22.29,17.41l39.7-4.88a20,20,0,0,0,17.41-22.29l-24.08-196.1L776.31,410.43a50,50,0,0,0-55.72-43.53l-29.67,3.64L391.06,407.36,351.88,88.28,248.06,6.52A20,20,0,0,0,219.91,9.94Z"/></clipPath></defs><title>body</title><polyline class="cls-2" points="648.31 449.91 829.94 427.6 852.24 609.23"/><g class="cls-3"><rect class="cls-4" x="-34.83" y="-15.13" width="689.33" height="107.79" transform="translate(-2.41 38.05) rotate(-7)"/><rect class="cls-5" x="-21.69" y="91.86" width="689.33" height="107.79" transform="translate(-15.36 40.45) rotate(-7)"/><rect class="cls-4" x="-8.55" y="198.84" width="689.33" height="107.79" transform="translate(-28.3 42.85) rotate(-7)"/><rect class="cls-5" x="4.38" y="304.16" width="689.33" height="107.79" transform="translate(-41.04 45.21) rotate(-7)"/><rect class="cls-4" x="17.52" y="411.15" width="689.33" height="107.79" transform="translate(-53.98 47.61) rotate(-7)"/><rect class="cls-5" x="30.66" y="518.13" width="689.33" height="107.79" transform="translate(-66.92 50.01) rotate(-7)"/><rect class="cls-4" x="43.8" y="625.12" width="689.33" height="107.79" transform="translate(-79.86 52.41) rotate(-7)"/><rect class="cls-5" x="56.94" y="732.11" width="689.33" height="107.79" transform="translate(-92.81 54.81) rotate(-7)"/><rect class="cls-6" x="11.06" y="-17.94" width="689.33" height="860.65" transform="translate(-47.61 46.43) rotate(-7)"/></g><g class="cls-7"><rect class="cls-4" x="86.12" y="-29.99" width="689.33" height="107.79" transform="translate(0.3 52.68) rotate(-7)"/><rect class="cls-5" x="99.26" y="77" width="689.33" height="107.79" transform="translate(-12.64 55.08) rotate(-7)"/><rect class="cls-4" x="112.4" y="183.99" width="689.33" height="107.79" transform="translate(-25.59 57.48) rotate(-7)"/><rect class="cls-5" x="125.33" y="289.3" width="689.33" height="107.79" transform="translate(-38.33 59.84) rotate(-7)"/><rect class="cls-4" x="138.47" y="396.29" width="689.33" height="107.79" transform="translate(-51.27 62.24) rotate(-7)"/><rect class="cls-5" x="151.61" y="503.28" width="689.33" height="107.79" transform="translate(-64.21 64.64) rotate(-7)"/><rect class="cls-4" x="164.74" y="610.27" width="689.33" height="107.79" transform="translate(-77.15 67.04) rotate(-7)"/><rect class="cls-5" x="177.88" y="717.26" width="689.33" height="107.79" transform="translate(-90.09 69.44) rotate(-7)"/></g><path class="cls-8" d="M674.51,416.47L816.43,399A40.12,40.12,0,0,1,861,433.87l17.43,141.92"/><circle class="cls-6" cx="37.52" cy="263.38" r="10" transform="translate(-31.82 6.54) rotate(-7)"/><circle class="cls-6" cx="84.17" cy="257.65" r="10" transform="translate(-30.78 12.18) rotate(-7)"/><path class="cls-6" d="M246.61,209.5a33,33,0,0,1,65.41-8"/></svg>