<?xml version="1.0" encoding="utf-8"?>
<!-- Generator: Adobe Illustrator 19.2.0, SVG Export Plug-In . SVG Version: 6.00 Build 0)  -->
<svg version="1.1" id="Layer_1" xmlns="http://www.w3.org/2000/svg" xmlns:xlink="http://www.w3.org/1999/xlink" x="0px" y="0px"
	 viewBox="0 0 156 321" style="enable-background:new 0 0 156 321;" xml:space="preserve">
<style type="text/css">
	.st0{fill:none;stroke:#27C787;stroke-width:30;stroke-miterlimit:10;}
	.st1{fill:#27C787;}
</style>
<path class="st1" d="M136.7,40.2c-3.7-6.9-16-18.5-57.5-18.5V31l-8.8-1.3h-1.1c-4.6,0-9.1,0.6-13.5,1.7l3.2,27.4l26.5-3.5l0.5-3.5
	c11.8,0.5,18.6,2.1,22.3,3.3v194c0,13.8-11.2,25-25,25H69.4c-2.5,0-5-0.4-7.3-1.1l-39.6,4.8c9.7,15.8,27.1,26.3,46.9,26.3h14.1
	c30.3,0,55-24.7,55-55V43.5L136.7,40.2z"/>
</svg>
